<svg id="Warstwa_1" data-name="Warstwa 1" xmlns="http://www.w3.org/2000/svg" viewBox="0 0 245.21 311.14"><defs><style>.cls-1,.cls-2{fill:#000000;}.cls-1{stroke:#231f20;stroke-miterlimit:10;stroke-width:1.56px;}</style></defs><title>projekty_do_druku_ikona</title><path class="cls-1" d="M177.68,151.48c-.73,0-1.46,0-2.2,0,0,5.53-.06,10.8-.08,15.92H191Zm-37.77,0c-26.67,0-43.39,16.59-43.41,43.13q0,55.79,0,111.58h0q0,19.9,0,39.8H112.4q0-74.46,0-148.93c0-20.31,9.27-29.62,29.45-29.64h16.83q0-7.89,0-15.92Q149.29,151.45,139.91,151.46Zm200,109.6a20.17,20.17,0,0,0-4.26-11.82c-25.23-30.74-50.87-61.16-76.2-91.83-3.67-4.46-7.65-6.09-13.38-6.06q-23.59.15-47.17.13-10.59,0-21.18,0c-.73,0-1.46,0-2.2,0H158.67q-9.37,0-18.76,0c-26.67,0-43.39,16.59-43.41,43.13q0,55.79,0,111.58h0q0,19.9,0,39.8,0,8.1,0,16.22,0,24.6,0,49.17c0,2.66,0,5.3,0,7.95a45.94,45.94,0,0,0,.75,8.22c3.56,19.62,19.62,33.29,40.55,33.33q80.37.15,160.74,0c23.78-.05,41.46-17.71,41.49-41.4Q340.17,340.27,339.87,261.06Zm-81.05-78.82c19.08,22.86,36.66,43.91,54.79,65.61-13.2,0-25.78,1.08-38.05-.36-9.28-1.09-16.37-10.85-16.63-20.16C258.49,213.11,258.82,198.85,258.82,182.24ZM112.4,346q0-74.46,0-148.93c0-20.31,9.27-29.62,29.45-29.64H242c0,12.34,0,24.25,0,36,0,6,0,12,0,17.92,0,14.69,5.35,26.59,14.64,34.29,7.45,6.2,17.41,9.7,29.2,9.76,12.41.08,24.83,0,37.74,0v114H112.4Zm211.72,56.45c-.3,5.18,0,10.4-.1,15.6-.43,16.74-10.18,26.56-27,26.68-26.26.17-52.53.05-78.81.05H141c-14.49,0-23.64-5.86-27.06-17.21a39.38,39.38,0,0,1-1.55-11c0-1.72,0-3.43,0-5.14,0-3.24.09-6.48-.12-9.69-.33-4.92,1.81-6.15,6.4-6.15q60,.09,120,.06,8.48,0,16.93,0,31,0,62-.08C323.07,395.47,324.38,397.61,324.12,402.42Z" transform="translate(-95.66 -150.57)"/><line class="cls-2" x1="190.2" y1="106.99" x2="42.75" y2="107.18"/><path class="cls-2" d="M285.86,253.66l-129.07.16-18.38,0c-5,0-5,7.81,0,7.8l129.07-.16,18.38,0c5,0,5-7.82,0-7.81Z" transform="translate(-95.66 -150.57)"/><line class="cls-2" x1="190.5" y1="152.44" x2="42.75" y2="152.44"/><path class="cls-2" d="M286.16,299.11H138.41c-5,0-5,7.81,0,7.81H286.16c5,0,5-7.81,0-7.81Z" transform="translate(-95.66 -150.57)"/><line class="cls-2" x1="166.29" y1="195.4" x2="42.75" y2="195.4"/><path class="cls-2" d="M262,342.07H138.41c-5,0-5,7.81,0,7.81H262c5,0,5-7.81,0-7.81Z" transform="translate(-95.66 -150.57)"/></svg>