<svg width="33" height="33" viewBox="0 0 33 33" fill="none" xmlns="http://www.w3.org/2000/svg">
<circle cx="16.5" cy="16.5" r="16.5" fill="#ffff"/>
<path d="M10 23.5V9C10 8.46957 10.2107 7.96086 10.5858 7.58579C10.9609 7.21071 11.4696 7 12 7H23.4C23.5591 7 23.7117 7.06321 23.8243 7.17574C23.9368 7.28826 24 7.44087 24 7.6V25H11.5M14 11H20M11.5 19H24M11.5 22H24" stroke="#202b53" stroke-width="1.5" stroke-linecap="round"/>
<path d="M11.5 19C10.5 19 10 19.672 10 20.5C10 21.328 10.5 22 11.5 22C10.5 22 10 22.672 10 23.5C10 24.328 10.5 25 11.5 25" stroke="#202b53" stroke-width="1.5" stroke-linecap="round" stroke-linejoin="round"/>
</svg>
