<svg width="33" height="33" viewBox="0 0 33 33" fill="none" xmlns="http://www.w3.org/2000/svg">
<circle cx="16.5" cy="16.5" r="16.5" fill="#ffff"/>
<path d="M10.2548 11.3227C10.0742 10.6386 10.1694 9.90999 10.5198 9.29678C10.8701 8.68356 11.4469 8.2358 12.1236 8.05174L19.3293 6.09156C19.6639 6.0005 20.013 5.97706 20.3565 6.02259C20.7001 6.06813 21.0314 6.18173 21.3314 6.3569C21.6314 6.53207 21.8943 6.76536 22.1049 7.04338C22.3155 7.3214 22.4697 7.6387 22.5587 7.97706L25.9108 20.6742C26.0911 21.3579 25.9958 22.086 25.6458 22.6989C25.2957 23.3118 24.7195 23.7595 24.0434 23.9438L16.8376 25.904C16.5031 25.9951 16.1542 26.0186 15.8107 25.9731C15.4672 25.9277 15.1359 25.8142 14.8359 25.6391C14.5359 25.4641 14.273 25.231 14.0624 24.9531C13.8517 24.6752 13.6974 24.3581 13.6083 24.0198L10.2548 11.3227ZM15.444 11.6654C15.444 11.4002 15.3397 11.1458 15.1541 10.9582C14.9685 10.7707 14.7167 10.6653 14.4542 10.6653C14.1917 10.6653 13.9399 10.7707 13.7543 10.9582C13.5687 11.1458 13.4644 11.4002 13.4644 11.6654C13.4644 11.9306 13.5687 12.185 13.7543 12.3726C13.9399 12.5601 14.1917 12.6655 14.4542 12.6655C14.7167 12.6655 14.9685 12.5601 15.1541 12.3726C15.3397 12.185 15.444 11.9306 15.444 11.6654ZM10.1651 23.3331V16.1565L12.5037 25.0106C12.5987 25.3733 12.7491 25.704 12.9444 26H12.8046C12.1045 26 11.4332 25.719 10.9382 25.2189C10.4432 24.7187 10.1651 24.0404 10.1651 23.3331ZM7.09012 21.3276L8.84536 14.7083V23.3331C8.84536 23.7838 8.91927 24.2158 9.0552 24.6199L8.95622 24.5932C8.62137 24.5025 8.30747 24.3461 8.03246 24.1328C7.75744 23.9196 7.5267 23.6537 7.35341 23.3503C7.18013 23.0469 7.06768 22.712 7.02251 22.3647C6.97733 22.0174 7.00031 21.6646 7.09012 21.3263V21.3276Z" fill="#202b53"/>
</svg>
