<svg width="33" height="33" viewBox="0 0 33 33" fill="none" xmlns="http://www.w3.org/2000/svg">
<circle cx="16.5" cy="16.5" r="16.5" fill="#ffff"/>
<path d="M11.5333 7.23529H21.6667C22.0026 7.23529 22.3248 7.36544 22.5623 7.5971C22.7999 7.82877 22.9333 8.14297 22.9333 8.47059V14.6742C23.3619 14.7121 23.7859 14.7886 24.2 14.9028V8.47059C24.2 7.81535 23.9331 7.18694 23.458 6.72362C22.9829 6.26029 22.3385 6 21.6667 6H11.5333C10.8615 6 10.2171 6.26029 9.742 6.72362C9.2669 7.18694 9 7.81535 9 8.47059V23.2941C9 23.9494 9.2669 24.5778 9.742 25.0411C10.2171 25.5044 10.8615 25.7647 11.5333 25.7647H16.9255C16.6029 25.3837 16.3239 24.9695 16.0933 24.5294H11.5333C11.1974 24.5294 10.8752 24.3993 10.6377 24.1676C10.4001 23.9359 10.2667 23.6217 10.2667 23.2941H15.5955C15.4783 22.8903 15.3999 22.4768 15.3612 22.0588H10.2667V8.47059C10.2667 8.14297 10.4001 7.82877 10.6377 7.5971C10.8752 7.36544 11.1974 7.23529 11.5333 7.23529ZM12.8 8.47059C12.4641 8.47059 12.1419 8.60074 11.9043 8.8324C11.6668 9.06406 11.5333 9.37826 11.5333 9.70588V10.9412C11.5333 11.2688 11.6668 11.583 11.9043 11.8147C12.1419 12.0463 12.4641 12.1765 12.8 12.1765H20.4C20.7359 12.1765 21.0581 12.0463 21.2957 11.8147C21.5332 11.583 21.6667 11.2688 21.6667 10.9412V9.70588C21.6667 9.37826 21.5332 9.06406 21.2957 8.8324C21.0581 8.60074 20.7359 8.47059 20.4 8.47059H12.8ZM20.4 9.70588V10.9412H12.8V9.70588H20.4ZM28 21.4412C28 22.9155 27.3995 24.3294 26.3305 25.3719C25.2616 26.4143 23.8117 27 22.3 27C20.7883 27 19.3384 26.4143 18.2695 25.3719C17.2005 24.3294 16.6 22.9155 16.6 21.4412C16.6 19.9669 17.2005 18.553 18.2695 17.5105C19.3384 16.468 20.7883 15.8824 22.3 15.8824C23.8117 15.8824 25.2616 16.468 26.3305 17.5105C27.3995 18.553 28 19.9669 28 21.4412ZM21.692 19.0126C21.6099 18.9576 21.5144 18.9244 21.4151 18.9164C21.3158 18.9084 21.2161 18.9258 21.1258 18.9669C21.0521 18.9985 20.9854 19.0438 20.9295 19.1003C20.8115 19.2182 20.7455 19.3765 20.7458 19.5413V23.3398C20.745 23.4217 20.7609 23.5029 20.7924 23.5788C20.8239 23.6547 20.8705 23.7238 20.9295 23.7821C20.9873 23.8381 21.0546 23.8841 21.1283 23.9179C21.2569 23.9754 21.4027 23.9842 21.5375 23.9426C21.5959 23.9239 21.6513 23.8973 21.7021 23.8636L24.6104 21.9279C24.6989 21.871 24.7702 21.7921 24.8169 21.6994C24.865 21.6059 24.8897 21.5027 24.8891 21.3981C24.8884 21.2935 24.8624 21.1906 24.8131 21.0978C24.7635 21.0063 24.6907 20.9289 24.6015 20.8729L21.692 19.0126Z" fill="#202b53"/>
</svg>
