<svg id="Warstwa_1" data-name="Warstwa 1" xmlns="http://www.w3.org/2000/svg" viewBox="0 0 182.04 155.82"><title>identyfikacja_wizualna_ikona</title><path d="M306.08,325.54c-13.18-13.87-27.95-25.68-45.07-34.36-21.8-11-44.43-14.65-68.14-7-24.93,8-45.09,23.25-62.86,42-4.12,4.34-3.52,8.83,1.13,13.67a171.34,171.34,0,0,0,37.42,29.78c15.32,8.9,31.57,14.86,49.6,14.47,3,0,6,0,9,0a21.54,21.54,0,0,0,3-.47c31.21-5.33,55.14-23,76.45-45.11C310.44,334.41,310.1,329.78,306.08,325.54Zm-26,23.08a125.26,125.26,0,0,1-36.63,20.92c-17.54,6.26-34.95,5.88-52.2-.63-20.46-7.73-37.35-20.7-52.89-36.7,3.95-3.74,7.57-7.37,11.4-10.75,11.56-10.18,24.2-18.68,38.49-24.64,22.44-9.35,44.45-7.95,66,2.63,16.47,8.07,30.74,19.13,44.06,33.17C292.19,338,286.33,343.58,280.08,348.62Z" transform="translate(-127.25 -228.23)"/><path d="M155.43,287.59c-.81.85-2,3.07-3.56,3.48s-4.77-.28-5.55-1.54c-5.77-9.3-11.27-18.78-16.4-28.44-.69-1.29.64-4.63,2.05-5.77,1.17-.95,5-.81,5.63.14,6.11,9.82,11.79,19.9,17.57,29.93A10.12,10.12,0,0,1,155.43,287.59Z" transform="translate(-127.25 -228.23)"/><path d="M302,258.85c-1,2.24-1.46,3.66-2.19,4.94-4.52,7.91-9.14,15.77-13.64,23.7-1.85,3.27-4.32,5.53-8,3.4s-3-5.3-1.05-8.58c4.91-8.27,9.48-16.74,14.62-24.86a7.53,7.53,0,0,1,6-2.82C299.36,254.79,300.71,257.44,302,258.85Z" transform="translate(-127.25 -228.23)"/><path d="M223.28,249c0,4.83,0,9.65,0,14.48,0,3.62-1.52,5.78-5.25,5.76-3.44,0-5.12-2-5.12-5.39q0-15,0-30c0-3.37,1.66-5.52,5-5.59,3.61-.08,5.39,2.08,5.37,5.72C223.25,239,223.28,244,223.28,249Z" transform="translate(-127.25 -228.23)"/><path d="M218.61,301.13a31.65,31.65,0,0,0-32.27,31.15c-.17,16.92,14.22,31.41,31.43,31.63s31.38-13.94,31.54-31.29A31.18,31.18,0,0,0,218.61,301.13Zm0,52.1c-12.25.1-21.47-8.76-21.53-20.68a20.84,20.84,0,0,1,20.8-21A21.2,21.2,0,0,1,239,332.32,21,21,0,0,1,218.57,353.23Z" transform="translate(-127.25 -228.23)"/></svg>