<svg xmlns="http://www.w3.org/2000/svg" viewBox="0 0 500 500"><defs><style>.cls-1{fill:#d77721;}.cls-2{fill:#e5863e;}.cls-3{stroke:#000;stroke-width:6px;}.cls-3,.cls-5{stroke-miterlimit:10;}.cls-4{fill:#fff;}.cls-5{fill:#65360d;stroke:#65360d;}.cls-6{fill:#542c12;}.cls-7{fill:#4c443c;}</style></defs><g id="TŁO"><rect class="cls-1" width="500" height="500"/></g><g id="DOOKOŁA_OCZU" data-name="DOOKOŁA OCZU"><path class="cls-2" d="M351.27,331.11a114.53,114.53,0,0,0-202.33-.69c-8.9.34-66,1.67-105-38.85-24-24.92-31.74-55.88-32.1-57.4a119.47,119.47,0,0,1-3.19-27.45v-34c0-66.08,54.07-120.14,120.14-120.14H370.68c8.09,0,50.52,1,84.85,35.29a119.78,119.78,0,0,1,35.29,84.85v34c-.39,10.66-3.15,51.1-35.29,84.85C414.5,334.66,359.06,331.67,351.27,331.11Z"/><path class="cls-2" d="M618.91,385.92"/><path class="cls-3" d="M-173.09,27.54"/><path class="cls-2" d="M-93,146.46"/><path class="cls-2" d="M-52.55,163.45"/><path class="cls-2" d="M686.06-44.46"/><path class="cls-2" d="M-235.38,70.42"/></g><g id="nos"><rect class="cls-4" x="195.89" y="372.63" width="54.11" height="98.6" rx="27.05"/><rect class="cls-4" x="248.21" y="372.63" width="54.11" height="98.6" rx="27.05"/><path class="cls-5" d="M352.6,341.41c3.28,26.46,7,57.83-21.08,67.44-12.93,4.44-32.38,4.16-46.3,0-18.65-5.56-20.72-16.1-33.07-16.1s-14.46,10.56-33.08,16.1c-14.34,4.28-33.5,4.08-46.3,0-33.8-10.76-28.13-50.13-25.59-67.44,2.85-19.38,5.17-34.83,25.59-49.35C202.42,271,245.52,270,249.89,269.93s52.16-.22,81.63,22.13C348,304.56,349.58,317,352.6,341.41Z"/><path class="cls-6" d="M314.49,337.71c2.06,17.75,4.4,38.8-13.24,45.25-8.14,3-20.36,2.79-29.11,0-11.72-3.73-13-10.81-20.79-10.81s-9.09,7.09-20.79,10.81c-9,2.87-21.06,2.74-29.11,0-21.24-7.22-17.68-33.63-16.08-45.25,1.79-13,3.25-23.37,16.08-33.11,18.64-14.15,45.73-14.81,48.48-14.85s32.79-.15,51.32,14.85C311.6,313,312.59,321.32,314.49,337.71Z"/></g><g id="OCZY"><rect class="cls-4" x="57.61" y="81.47" width="132.84" height="208.27" rx="62.17"/><rect class="cls-4" x="311.86" y="81.47" width="134.98" height="208.27" rx="62.17"/><rect class="cls-7" x="81.61" y="117.82" width="99.24" height="137.56" rx="49.62"/><circle class="cls-4" cx="94.36" cy="140.96" r="23.14"/><rect class="cls-7" x="322.24" y="117.82" width="99.24" height="137.56" rx="49.62"/><circle class="cls-4" cx="335" cy="140.96" r="23.14"/></g></svg>