<svg id="Warstwa_1" data-name="Warstwa 1" xmlns="http://www.w3.org/2000/svg" viewBox="0 0 330.69 330.82"><title>projekt_logo_ikona</title><path d="M383.61,322.16c-.07,1.72-.11,3.43-.21,5.15a28.74,28.74,0,0,1-.4,4.84,8.4,8.4,0,0,1-8.08,6.76c-2.82.17-5.65.24-8.47.27-5.62.06-11.24.12-16.86.08-3.46,0-6.92-.07-10.36-.36a8.72,8.72,0,0,1-8.11-8.2c-.1-1.05-.15-2.12-.16-3.18,0-9.25,0-18.5,0-27.75a39.74,39.74,0,0,1,.52-5.44,6.72,6.72,0,0,1,5.35-5.89c2.49-.65,5-1.08,7.71-1.63-.31-1.05-.6-2.2-1-3.32a60.74,60.74,0,0,0-11.71-19.77c-9.75-11.49-21.6-20.34-34.74-27.55a135.4,135.4,0,0,0-39.08-14.36c-4.19-.83-8.47-1.26-12.7-1.87-.26,0-.53,0-.94,0-.19,2.3-.29,4.58-.6,6.84a14.14,14.14,0,0,1-1.15,4.27c-1.33,2.67-3.81,3.77-6.66,3.83-6.18.13-12.37.16-18.56.16-5.32,0-10.64-.1-16-.13-5.66,0-8.69-2.82-9.13-8.48-.14-1.85-.25-3.71-.39-5.66-1.57,0-3.12-.08-4.66,0a93,93,0,0,0-25,5.21,140.81,140.81,0,0,0-48,27.57c-7.92,7-14.74,14.89-19.39,24.47-1.38,2.85-2.43,5.87-3.66,8.89,2.39.4,4.52.73,6.64,1.11a20.71,20.71,0,0,1,2,.53,6.6,6.6,0,0,1,5.07,6,70.51,70.51,0,0,1,.47,7.55c0,7.55,0,15.1,0,22.65a49.82,49.82,0,0,1-.23,6.36,8.74,8.74,0,0,1-8.19,7.8c-2,.2-4,.25-6,.27q-9.08.09-18.16.09c-3.26,0-6.51-.11-9.77-.13-6.22,0-9.86-3.55-10-9.79-.11-4.25-.19-8.51-.2-12.77q0-9,.12-18.05A15.22,15.22,0,0,1,54.16,292c1.51-3.18,4.49-4.68,8.09-4.48a41,41,0,0,0,5,.12,6.13,6.13,0,0,0,4.9-3.06,47.78,47.78,0,0,0,3-5.81,113.48,113.48,0,0,1,21.64-32.66,128.19,128.19,0,0,1,34-25.12,194.75,194.75,0,0,1,42.94-15.84c5.89-1.47,11.75-3,17.62-4.58.29-.07.57-.17.92-.28,0-2.28-.12-4.54,0-6.79a16.11,16.11,0,0,1,.94-4.84c1.3-3.27,4.07-4.81,7.42-5,4.11-.27,8.24-.22,12.36-.31a9.94,9.94,0,0,0,1.06-.14h8.38c.39.05.78.13,1.16.14,4,.1,8.05.06,12.06.3a8.24,8.24,0,0,1,8.13,8.24c.14,2.58.09,5.18,0,7.77,0,.77.28,1,1,1.17,6.26,1.49,12.5,3,18.75,4.55a181,181,0,0,1,42.85,16c17.82,9.52,32.87,22.23,44.49,38.86,3.42,4.9,6.76,9.85,8.86,15.53a51.14,51.14,0,0,0,3.12,6.87,9.94,9.94,0,0,0,7.14,5.42,28.59,28.59,0,0,0,5.24.19,3.17,3.17,0,0,1,2.35.53c3.09,2.71,5.41,5.83,5.57,10.16.06,1.75.26,3.49.39,5.23ZM226.37,201.82H210.31v15.86h16.06ZM349.09,305v15.85h16V305ZM87.22,320.94c0-.38,0-.64,0-.9,0-4.59,0-9.18,0-13.76,0-.85-.26-1.06-1.07-1-4.62,0-9.24,0-13.86,0h-1v15.69Z" transform="translate(-52.92 -183.2)"/><path d="M278,460.71c1.78,1.23,3.53,2.49,5.33,3.68a30.9,30.9,0,0,1,10,10.09c3.93,6.68,4.75,13.65,2.08,20.95s-7,12.88-14.1,16.12a26.51,26.51,0,0,1-10.75,2.22c-7.05.08-14.1.1-21.16.12-15.9.05-31.8.13-47.7.12-11.84,0-23.69-.12-35.53-.23a26.13,26.13,0,0,1-25.71-22.41c-1.41-9.71,1.94-17.6,9.36-23.77,2.54-2.11,5.45-3.78,8.2-5.64.27-.18.56-.33.91-.53l-6.79-9.06c-11.49-15.28-23-30.53-34.43-45.88a61.15,61.15,0,0,1-5.55-9.19c-3.68-7.34-3.27-14.66.71-21.82a80,80,0,0,1,8.93-12.23q19.71-23.56,39.41-47.15,20.17-24.11,40.34-48.2c5.24-6.25,10.53-12.44,15.79-18.66.28-.33.58-.64.95-1.06l1.7,2q21.93,26.21,43.86,52.41,23.5,28.14,47,56.3c3.61,4.34,7.24,8.68,10.68,13.16a26.36,26.36,0,0,1,5,11c1,5.24-.05,10.14-2.32,14.88-2.08,4.32-5.07,8-7.92,11.82q-18.83,25.09-37.7,50.16C278.37,460.12,278.21,460.37,278,460.71ZM207.19,287.18a17.79,17.79,0,0,1-1.7,3.1Q188.36,311,171.15,331.53t-34.51,41.25c-2.42,2.88-4.88,5.72-7.19,8.68a8.63,8.63,0,0,0-1,9.81,26,26,0,0,0,2.41,3.89q14.82,19.74,29.7,39.44,7.77,10.27,15.66,20.43A14,14,0,0,0,187,460.68c2.79.14,5.58.17,8.37.19,8.45.06,16.9.13,25.34.11,9.32,0,18.63-.15,27.94-.25a13.91,13.91,0,0,0,11.23-5.51c3.75-4.75,7.42-9.56,11.07-14.39q15-19.77,29.86-39.57c2-2.6,4-5.14,5.84-7.84a10.28,10.28,0,0,0,0-12.22,30.21,30.21,0,0,0-2.15-2.87Q289,359.91,273.57,341.5q-22.5-26.83-44.95-53.71a9,9,0,0,0-.71-.66,18.6,18.6,0,0,0-.8,3.75q-.12,18.36-.09,36.73c0,10.92.17,21.83.06,32.74a14.94,14.94,0,0,0,3.71,10,24.7,24.7,0,0,1,3.17,4.81c2.6,5.34,2.94,10.8.11,16.18a17.17,17.17,0,0,1-17.62,8.9c-6.3-.89-11-4.19-13.6-10-2.9-6.41-1.55-12.45,2.29-18.08.94-1.38,2-2.64,3-4a6.37,6.37,0,0,0,1.23-3.61c0-5.82.15-11.64.16-17.46,0-18.74,0-37.47.06-56.2C209.57,288.94,209.09,287.69,207.19,287.18Zm11.46,191.5H169.84c-1.36,0-2.73.08-4.08.21-4.5.44-7.3,2.78-7.87,6.83s.68,7.95,5.11,9.43a12.36,12.36,0,0,0,3.59.7c3.26.1,6.51,0,9.77,0l73.77,0c5.19,0,10.38,0,15.57,0a54.42,54.42,0,0,0,6.26-.26,7.12,7.12,0,0,0,6.74-6.37,14.47,14.47,0,0,0,.09-3.48c-.22-2.9-1.59-5.15-4.39-6.08a18.77,18.77,0,0,0-5.74-1C252,478.65,235.32,478.68,218.65,478.68Z" transform="translate(-52.92 -183.2)"/></svg>