<svg id="Warstwa_1" data-name="Warstwa 1" xmlns="http://www.w3.org/2000/svg" viewBox="0 0 390.34 390.34"><defs><style>.cls-1{fill:#000000;fill-rule:evenodd;}</style></defs><title>logo_czarne</title><path class="cls-1" d="M218.3,111.36c107.75,0,195.14,87.39,195.14,195.2S326.05,501.7,218.3,501.7,23.1,414.3,23.1,306.56s87.39-195.2,195.2-195.2Zm-26.49,75.39v107h34.47v-107H191.81Zm0,120V423h34.47V306.71Zm65.21,114q35.36-6.15,57.61-29.06,30.3-31.18,30.37-87.39c0-37.55-10.54-66.61-31.54-87q-22.29-21.63-57.9-28Zm-94.34,16.39v-.07c-27.52-.95-48.53-6.66-63-17.35-15.81-11.56-23.72-28.91-23.72-51.82,0-18.08,5.64-32.94,16.84-44.43S120.3,304.08,142,299.83q-21.63-3-34.69-18.37c-8.71-10.39-13.1-22.84-13.1-37.62q0-33,27.15-52.19c40.33-28.33,111.62-20.05,111.62-20.05,42.24-.88,76.34,15.66,101.74,37.47Q377,245.63,377,309.13a138.23,138.23,0,0,1-8.49,48.74,128,128,0,0,1-25.11,41.06c-11.12,12.45-25,21.89-41.57,28.48s-35.06,9.73-55.34,9.73h-83.8Zm0-14.86V308.54q-22.06,3.51-34.92,13.39c-13.17,10.18-19.83,26-19.83,47.58q0,28.11,16.91,40.77c8.63,6.44,21.22,10.47,37.84,12Zm0-129.92v-102c-8.79,2.42-16.11,5.93-22.11,10.69q-18,14.16-18,41.72a56.46,56.46,0,0,0,4.54,22.84,45.91,45.91,0,0,0,12.44,17.27,44.17,44.17,0,0,0,17,8.34c1.76.44,3.81.81,6.08,1.17Z" transform="translate(-23.1 -111.36)"/></svg>