<svg id="Warstwa_1" data-name="Warstwa 1" xmlns="http://www.w3.org/2000/svg" viewBox="0 0 234.81 174.24"><title>mail_ikona</title><path d="M162.56,400.76h-22a4.43,4.43,0,0,0-.51-.06l-22.83-.25a18.58,18.58,0,0,1-4.63-.63,15.31,15.31,0,0,1-11.29-13c-.3-2.93-.41-5.89-.43-8.84,0-4.19.15-8.37.15-12.56q0-26,0-52c0-17.81-.15-35.62-.14-53.43,0-6.12.24-12.23.4-18.34a12.49,12.49,0,0,1,.4-3.3,15.55,15.55,0,0,1,10.1-10.68,20.73,20.73,0,0,1,7-.91q15-.06,30-.1c36.22,0,72.45.3,108.68,0,20.18-.17,40.35-.2,60.52.14a26.82,26.82,0,0,1,4.3.34,15.44,15.44,0,0,1,12.85,14.61c.17,3,.28,6,.3,9,0,3.46-.16,6.91-.17,10.37q0,51.61,0,103.21c0,.8,0,1.6.05,2.4.13,5.11.49,10.21.15,15.32a32.54,32.54,0,0,1-1.46,8.17c-2,5.86-6,9.26-12.13,10a54.64,54.64,0,0,1-6.65.31c-14.91.05-29.82.14-44.73.08-35.74-.15-71.48-.2-107.22.1C163.08,400.7,162.82,400.74,162.56,400.76Zm55.89-162.07H119.72c-.78,0-1.56,0-2.34,0a4.3,4.3,0,0,0-3.21,1.26c-.27.26-.31.49-.09.75a13.85,13.85,0,0,0,1.67,1.91c1.34,1.12,2.79,2.11,4.15,3.23q12.53,10.35,25,20.73,16.37,13.55,32.74,27.06,12.24,10.11,24.46,20.22a42.93,42.93,0,0,0,8,5.48,16.74,16.74,0,0,0,13.51,1.08,28.84,28.84,0,0,0,8.55-5c5.83-4.76,11.61-9.57,17.4-14.37q15.25-12.6,30.49-25.2c5.24-4.32,10.53-8.58,15.76-12.92,5.91-4.89,11.77-9.85,17.67-14.76,2.78-2.31,5.6-4.57,8.4-6.86.35-.29.57-1,.35-1.23a3.67,3.67,0,0,0-2.45-1.33c-1.08,0-2.16,0-3.23,0Zm93.22,149.73c-.12-.1-.24-.22-.36-.31l-47.17-35.23-30.8-23a.81.81,0,0,0-.9-.14c-.68.26-1.38.45-2.06.72A31.52,31.52,0,0,1,219.57,333a27.13,27.13,0,0,1-8.61-.88c-2.32-.71-4.59-1.56-6.88-2.38a1.19,1.19,0,0,0-1.26.21l-22.69,17-55,41.18c-.11.08-.21.18-.41.36C187.09,388.93,249.36,388.68,311.67,388.42Zm-68.44-66c2.58,1.85,5.17,3.63,7.69,5.51,8.68,6.47,17.34,13,26,19.48q20.21,15.14,40.43,30.23c1.75,1.3,3.59,2.49,5.4,3.72a4.54,4.54,0,0,0,.69.31V381c-.06-7.7-.18-15.39-.16-23.09.05-20.24.2-40.49.23-60.73,0-13.48-.06-27-.1-40.45v-1c-.68.51-1.24.89-1.76,1.31-7.31,6-14.64,12-21.92,18Q284.36,287.71,269,300.46q-12.21,10.1-24.45,20.16C244,321.12,243.28,321.6,243.23,322.39Zm-50.11,0a7.11,7.11,0,0,0-.63-.9,21.41,21.41,0,0,0-2-2c-2.32-1.91-4.71-3.74-7-5.65-7.26-6-14.49-12-21.74-18q-15.28-12.67-30.6-25.32c-5.67-4.67-11.4-9.26-17.11-13.89-.31-.26-.65-.48-1.07-.79V381.69c.79-.52,1.53-.94,2.2-1.44,7.43-5.47,14.88-10.91,22.26-16.43,9.27-6.92,18.43-14,27.75-20.83S183.56,329,193.12,322.37Z" transform="translate(-100.86 -226.52)"/></svg>